PathFileType	4	(X/Y/Z)	Run_500 01
DataRate	CameraRate	NumFrames	NumMarkers	Units	OrigDataRate	OrigDataStartFrame	OrigNumFrames
120	120	8	42	mm	120	143	128
Frame#	Time	RASI			LPSI			RPSI			RTH3			LTH1			LTH2			LTH3			RTB1			RTB2			RTB3			LTB1			LTB2			LTB3			RCAL			RTOE			RMT5			LCAL			LTOE			LMT5			LACR			RACR			CLAV			C7			RUA1			RUA2			RUA3			RLEL			LUA1			LUA2			LUA3			LLEL			LMEL			RFAsuperior			RFAradius			RFAulna			LFAsuperior			LFAradius			LFAulna			LASI			RTH1			RMEL			RTH2		
		X1	Y1	Z1	X2	Y2	Z2	X3	Y3	Z3	X4	Y4	Z4	X5	Y5	Z5	X6	Y6	Z6	X7	Y7	Z7	X8	Y8	Z8	X9	Y9	Z9	X10	Y10	Z10	X11	Y11	Z11	X12	Y12	Z12	X13	Y13	Z13	X14	Y14	Z14	X15	Y15	Z15	X16	Y16	Z16	X17	Y17	Z17	X18	Y18	Z18	X19	Y19	Z19	X20	Y20	Z20	X21	Y21	Z21	X22	Y22	Z22	X23	Y23	Z23	X24	Y24	Z24	X25	Y25	Z25	X26	Y26	Z26	X27	Y27	Z27	X28	Y28	Z28	X29	Y29	Z29	X30	Y30	Z30	X31	Y31	Z31	X32	Y32	Z32	X33	Y33	Z33	X34	Y34	Z34	X35	Y35	Z35	X36	Y36	Z36	X37	Y37	Z37	X38	Y38	Z38	X39	Y39	Z39	X40	Y40	Z40	X41	Y41	Z41	X42	Y42	Z42	

143	  1.191667	1024.231742	992.046495	-212.711794	857.810721	1066.919129	-361.261233	864.046458	1064.544565	-263.253505	737.221050	652.349655	-207.474494	1025.506317	866.672949	-493.787393	1134.028150	810.982340	-465.110683	1142.484442	681.352013	-441.466172	593.554218	461.213020	-276.922761	528.876554	451.419879	-207.502071	481.337044	401.311276	-271.846219	1262.156065	497.030811	-358.131915	1245.839135	416.672887	-434.889372	1276.534167	325.619567	-360.351733	304.632449	407.940233	-253.814182	339.932273	211.081292	-326.463461	318.261509	205.588102	-232.738403	1211.697194	155.979417	-369.233836	1398.701906	228.598676	-312.455565	1411.844194	200.254472	-398.092491	931.045855	1482.162558	-504.012977	1012.656332	1484.225717	-131.529718	1024.501187	1467.731769	-308.094807	897.210538	1522.813214	-315.385656	992.666170	1355.702687	-61.253830	917.867908	1349.143934	-48.167518	971.664438	1285.510674	-13.960905	951.901356	1216.832019	 13.283312	826.382519	1415.446957	-560.642611	750.756703	1410.532808	-537.159023	774.035364	1348.425413	-584.710382	693.727152	1312.534939	-601.207315	667.593257	1320.174372	-518.542729	1045.819814	1199.230393	-69.317891	1097.502377	1181.485094	-178.403039	1122.106338	1128.060191	-137.969581	774.643706	1213.762875	-583.598869	855.544410	1153.126257	-497.944351	834.178503	1117.322365	-552.604042	1015.946897	1030.982372	-442.441437	889.300659	859.613227	-151.171861	895.327597	1189.546417	-43.819671	 -0.000000	 -0.000000	  0.000000	
144	  1.200000	1024.256702	994.163641	-211.397682	857.417756	1065.895674	-361.985034	862.965669	1065.819311	-264.054322	744.145923	646.714113	-206.441694	1022.752942	861.204014	-494.645859	1131.553040	803.811169	-467.131776	1136.356067	673.449183	-441.363713	591.857669	464.396563	-274.898315	525.203847	461.838690	-205.342451	474.130191	414.892795	-268.956101	1260.794064	492.008826	-357.010993	1249.619315	411.089631	-433.456466	1285.047259	322.611757	-357.637035	298.236270	436.764684	-250.469016	318.308571	238.441691	-324.225852	295.983321	234.186969	-230.576429	1230.714402	148.810356	-366.776995	1411.855661	234.368545	-308.116185	1428.462506	205.087165	-392.924960	931.210078	1481.205670	-504.903976	1012.691942	1483.828950	-131.904661	1025.263902	1467.904839	-309.100942	897.967397	1522.660654	-316.399167	992.130769	1355.218916	-61.874906	917.366547	1348.656598	-48.464694	971.010452	1285.181986	-14.344657	950.975708	1216.519606	 12.270067	826.761885	1413.198523	-561.043996	751.327544	1407.505990	-537.228572	774.868109	1346.037677	-585.275916	694.994016	1309.509249	-601.801330	669.104457	1316.298816	-519.132702	1044.584273	1195.622803	-70.242632	1095.073783	1176.082106	-179.660964	1118.873663	1122.641406	-138.763630	777.003697	1211.480182	-584.667525	858.303223	1151.012280	-499.218709	837.925123	1115.336839	-554.250967	1015.537823	1028.658369	-439.971760	890.720414	861.462441	-151.527653	893.514191	1190.055410	-44.409225	 -0.000000	 -0.000000	  0.000000	
145	  1.208333	1024.277010	995.617252	-210.130953	856.608470	1063.648162	-362.468002	861.394076	1065.868142	-264.832021	752.340857	639.679716	-205.302952	1019.407308	855.443814	-495.843183	1128.063988	795.360927	-469.726922	1129.015719	665.116791	-440.787568	593.148854	466.414899	-272.520722	524.626781	472.532205	-203.032329	470.639486	427.966235	-265.734057	1257.887298	486.501023	-355.489647	1249.619112	405.644124	-431.931184	1289.643065	319.565277	-355.260194	297.438745	466.312661	-248.244806	300.939147	266.531183	-320.676098	276.010345	265.021106	-227.645562	1242.823498	143.112619	-365.040525	1419.465774	236.773918	-304.660083	1438.457705	207.462602	-389.158020	932.083245	1479.887874	-506.037612	1012.337933	1482.808737	-132.360289	1026.030110	1467.459105	-310.028754	898.891055	1522.160529	-317.937076	990.552718	1354.155433	-62.414497	915.732698	1347.512914	-49.384452	969.085640	1283.965746	-14.990925	948.514391	1215.521554	 11.013553	827.842436	1410.061992	-561.655218	752.665873	1403.415758	-537.515882	776.811955	1342.459011	-585.869997	697.489644	1305.029631	-602.622858	671.788645	1311.009587	-519.995385	1042.309083	1190.384468	-70.619510	1092.159659	1168.319553	-179.903501	1114.407300	1115.014129	-138.202057	780.554100	1207.599371	-585.784554	862.080442	1147.419912	-500.551433	842.577043	1111.792976	-555.872343	1014.692178	1026.399865	-437.362317	893.801179	860.866263	-151.454286	890.749549	1189.922567	-45.605661	  0.000000	  0.000000	 -0.000000	
146	  1.216667	1024.302771	996.157191	-209.054922	855.509561	1060.432240	-362.674063	859.814443	1064.559434	-265.447521	761.404105	631.847738	-203.904842	1016.110071	849.705187	-497.217495	1123.600741	785.991101	-471.966854	1121.511026	657.184810	-439.746865	596.934457	467.680599	-270.178851	527.770610	482.549439	-201.032768	470.788419	440.779536	-262.926800	1253.770874	480.619934	-353.871075	1246.021053	399.730814	-430.266611	1290.472189	315.861008	-353.102860	302.029874	495.868847	-246.978829	288.134607	295.333793	-316.313783	260.418503	297.886608	-224.041668	1247.954055	137.788084	-362.945651	1422.199724	235.415891	-302.512133	1441.917122	206.560487	-387.087930	933.620099	1478.096206	-507.392913	1011.831405	1481.107310	-133.016437	1026.776317	1466.194643	-310.840843	899.892223	1521.196336	-319.819116	988.113071	1352.636639	-62.924138	913.130115	1346.012989	-51.000764	965.994923	1282.027705	-15.902327	944.592207	1213.961672	  9.639589	829.548611	1406.072623	-562.596229	754.654066	1398.321175	-538.180704	779.750192	1337.708825	-586.577663	701.114030	1299.152383	-603.677504	675.471714	1304.459296	-521.096494	1038.810723	1183.859936	-70.404583	1088.657328	1158.628288	-179.009841	1108.524286	1105.467455	-136.289875	785.196016	1202.229782	-586.982524	866.845489	1142.520113	-501.976299	848.066271	1106.842225	-557.494818	1013.557657	1024.334720	-435.173814	898.372455	857.639843	-151.279395	887.184699	1189.240764	-47.370915	  0.000000	  0.000000	 -0.000000	
147	  1.225000	1024.417481	995.676581	-208.348761	854.253369	1056.511243	-362.686090	858.622896	1061.874740	-265.905506	770.998483	623.478911	-202.162898	1013.242797	844.042808	-498.134341	1118.563349	776.435339	-473.301707	1114.607287	650.157101	-438.079085	602.763610	468.537563	-267.902456	534.600355	491.093140	-199.613769	474.449801	453.455613	-260.904221	1248.598594	474.316226	-352.365243	1239.673899	392.875198	-428.334797	1287.549601	310.791171	-350.858595	311.759402	524.663191	-246.512498	280.025727	324.714492	-311.733891	250.944203	332.060218	-220.010899	1246.388820	131.645997	-359.473199	1420.520877	230.685116	-301.990703	1439.054593	202.101114	-386.793571	935.711730	1475.699475	-508.916025	1011.351757	1478.642240	-133.890667	1027.495782	1463.956060	-311.538803	900.892193	1519.648394	-321.845667	985.003098	1350.698366	-63.468156	909.798889	1344.370412	-53.203057	961.879050	1279.509822	-17.080489	939.354771	1211.925946	  8.238663	831.810382	1401.248781	-563.984118	757.177218	1392.252744	-539.390870	783.548099	1331.786318	-587.479578	705.703796	1291.964789	-604.952994	679.928090	1296.809351	-522.413347	1033.942914	1176.339776	-69.616264	1084.405306	1147.413089	-176.911451	1101.080638	1094.278723	-133.097956	790.750500	1195.504298	-588.318250	872.497407	1136.452537	-503.500353	854.292941	1100.646443	-559.154409	1012.212848	1022.264500	-433.659845	903.899171	852.370229	-151.070715	882.801314	1188.087332	-49.553805	  0.000000	  0.000000	 -0.000000	
148	  1.233333	1024.709978	994.156117	-208.192449	852.931465	1052.093190	-362.583670	857.929057	1057.905237	-266.237946	780.861330	614.557318	-200.132408	1010.893011	838.444081	-498.112015	1113.516591	767.511261	-473.664299	1108.504262	643.960927	-435.821848	610.453529	469.089545	-265.520934	544.586538	497.871733	-198.696715	481.520593	465.860728	-259.554708	1242.250278	467.398696	-350.956724	1231.673697	384.957138	-426.080825	1280.855624	303.889603	-348.307858	326.354601	551.940817	-246.762408	276.749329	354.202527	-307.371804	248.388604	366.404300	-215.835803	1238.656660	123.894948	-354.378165	1414.587935	223.311628	-302.931034	1430.376617	194.246421	-387.906072	938.202655	1472.588903	-510.534201	1010.937838	1475.347541	-134.885225	1028.190337	1460.698244	-312.146269	901.841129	1517.407203	-323.884161	981.399704	1348.248773	-64.108168	905.987952	1342.662326	-55.721372	956.891353	1276.485806	-18.515931	932.962398	1209.466712	  6.850085	834.569858	1395.586617	-565.830812	760.153300	1385.225154	-541.244320	788.100787	1324.701085	-588.625113	711.076923	1283.563787	-606.433982	684.953603	1288.179426	-523.961101	1027.639152	1168.017882	-68.313867	1079.162888	1134.885288	-173.660615	1092.028150	1081.736183	-128.720980	797.012596	1187.551227	-589.836430	878.900053	1129.323114	-505.103789	861.143740	1093.340381	-560.856619	1010.664995	1019.818496	-432.802639	909.592019	846.011163	-150.709833	877.455754	1186.507687	-51.938488	 -0.000000	 -0.000000	  0.000000	
149	  1.241667	1025.124565	991.597121	-208.636803	851.596365	1047.271251	-362.355441	857.504997	1052.790012	-266.362519	790.827003	605.036613	-197.956853	1008.941863	832.956136	-497.132040	1108.940413	759.820379	-473.127990	1103.012725	638.102447	-433.457585	620.055372	469.212033	-262.875022	557.062249	503.110693	-197.912868	491.858058	477.640370	-258.478157	1234.448002	459.540108	-349.533248	1222.585696	376.061796	-423.676424	1270.569695	295.073448	-345.595663	345.301790	577.073349	-247.699495	278.503119	382.982196	-303.384586	252.555377	399.659622	-211.754046	1225.450694	114.656823	-348.389276	1404.425287	213.701326	-304.596399	1416.742914	183.230677	-389.586783	940.934219	1468.693785	-512.175624	1010.485168	1471.200222	-135.830739	1028.863777	1456.494836	-312.677582	902.735166	1514.400202	-325.875715	977.429022	1345.108703	-64.867657	901.873175	1340.816042	-58.229580	951.170146	1272.942748	-20.185484	925.552827	1206.612835	  5.481036	837.787860	1389.054869	-568.021026	763.538445	1377.248877	-543.743269	793.341254	1316.498504	-590.025526	717.081337	1274.039904	-608.126037	690.415676	1278.635783	-525.787441	1019.925027	1159.007064	-66.551650	1072.640258	1121.061219	-169.435779	1081.414475	1068.148873	-123.249395	803.806582	1178.478221	-591.539995	885.922027	1121.229271	-506.754330	868.517717	1085.020414	-562.555121	1008.940477	1016.672515	-432.535650	914.685132	839.278228	-150.138794	871.046204	1184.518188	-54.341094	 -0.000000	 -0.000000	  0.000000	
150	  1.250000	1025.396529	987.971383	-209.496771	850.303624	1041.976311	-361.924684	856.924261	1046.649349	-266.067299	800.848601	595.053425	-195.763834	1007.168344	827.605003	-495.473408	1105.055735	753.569536	-471.641519	1097.878913	631.999103	-431.727680	631.657232	468.719165	-259.902834	571.540922	507.294508	-196.822573	505.202546	488.359037	-257.285004	1225.083399	450.317302	-348.137754	1211.986088	366.168685	-421.457500	1257.241301	284.519023	-343.159153	367.755409	599.678854	-249.265467	285.421175	410.088536	-299.697090	262.600042	430.752390	-207.924233	1207.598090	105.174037	-342.686380	1390.248015	201.437148	-305.939833	1399.194174	168.974095	-390.788644	943.797758	1463.974054	-513.778609	1009.815487	1466.221155	-136.562472	1029.519840	1451.483541	-313.119849	903.616091	1510.613222	-327.789194	973.133220	1341.104097	-65.709563	897.512588	1338.629131	-60.486735	944.808891	1268.799045	-22.065168	917.233744	1203.371747	  4.133511	841.452130	1381.606862	-570.384121	767.313204	1368.334483	-546.816805	799.207903	1307.256910	-591.658138	723.624850	1263.481045	-610.064401	696.263809	1268.219038	-527.939621	1010.894996	1149.392956	-64.356751	1064.576863	1105.926391	-164.458970	1069.330859	1053.830203	-116.758244	811.023485	1168.374143	-593.391433	893.449712	1112.274743	-508.403819	876.346874	1075.760528	-564.160846	1007.176530	1012.637093	-432.888352	918.730566	832.319976	-149.476322	863.616476	1182.115813	-56.671645	 -0.000000	 -0.000000	  0.000000	
